<?xml version="1.0" encoding="UTF-8"?><svg xmlns="http://www.w3.org/2000/svg" xmlns:xlink="http://www.w3.org/1999/xlink" viewBox="0 0 48 48" version="1.1"><path d="M2.86 21.996h2.917c1.051 0 2.262.899 2.262 2 0 1.106-1.21 2-2.262 2H2.86c-1.046 0-1.859-.894-1.859-2 0-1.101.813-2 1.86-2zm40.16-1c-1.399 0-2.52 1.344-2.52 3 0 1.66 1.129 3 2.52 3h4.02l.96-1h-5c-.898-.047-1.29-.637-1.5-1.5h5.54l.96-1h-6.5c.215-.86.594-1.492 1.5-1.5h4.04l.96-1zm-9.02 0v5.43c0 .144.094.289.2.398.109.113.25.172.405.172L38.54 27l1-1L35 25.996V21zm-6.156 0c-1.594 0-2.852 1.348-2.852 3.004s1.258 2.996 2.852 2.996l3.648-.012 1.149-.988h-4.82c-1.051 0-1.84-.89-1.84-1.996 0-1.105.789-2.004 1.84-2.004l3.69.02 1.13-1.02zm-6.844 0c-.258 0-.523.219-.672.484L17.5 26.996h1l2.5-5 1.691 3H20.04l.941.98 2.18-.003.66 1.023 1.082-.008-3.277-5.508c-.23-.367-.375-.484-.625-.484zm-11 0v6h1v-5h3c.516 0 1 .465 1 1 0 .54-.484 1-1 1h-2.5l3.48 3h1.52l-2.5-2 .336-.008c.742 0 1.664-.87 1.664-1.992 0-1.117-.688-1.984-1.555-2zm-7.117 0c-1.594 0-2.883 1.348-2.883 3 0 1.656 1.29 3 2.883 3h2.879c1.59 0 3.238-1.34 3.238-3 0-1.656-1.648-3-3.238-3z" fill="#EF0F14" id="surface1"/><metadata><rdf:RDF xmlns:rdf="http://www.w3.org/1999/02/22-rdf-syntax-ns#" xmlns:rdfs="http://www.w3.org/2000/01/rdf-schema#" xmlns:dc="http://purl.org/dc/elements/1.1/"><rdf:Description about="https://iconscout.com/legal#licenses" dc:title="oracle,logo" dc:description="oracle,logo" dc:publisher="Iconscout" dc:date="2017-12-15" dc:format="image/svg+xml" dc:language="en"><dc:creator><rdf:Bag><rdf:li>Icons8</rdf:li></rdf:Bag></dc:creator></rdf:Description></rdf:RDF></metadata></svg>